<svg width="48" height="49" viewBox="0 0 48 49" fill="none" xmlns="http://www.w3.org/2000/svg">
<g filter="url(#filter0_ddd_3846_35074)">
<circle cx="24" cy="23" r="19" fill="white"/>
<path fill-rule="evenodd" clip-rule="evenodd" d="M16.0835 23C16.0835 22.5628 16.4379 22.2084 16.8752 22.2084H31.1252C31.5624 22.2084 31.9168 22.5628 31.9168 23C31.9168 23.4373 31.5624 23.7917 31.1252 23.7917H16.8752C16.4379 23.7917 16.0835 23.4373 16.0835 23Z" fill="#A7A7A7"/>
<path fill-rule="evenodd" clip-rule="evenodd" d="M16.0835 18.25C16.0835 17.8128 16.4379 17.4584 16.8752 17.4584H31.1252C31.5624 17.4584 31.9168 17.8128 31.9168 18.25C31.9168 18.6873 31.5624 19.0417 31.1252 19.0417H16.8752C16.4379 19.0417 16.0835 18.6873 16.0835 18.25Z" fill="#A7A7A7"/>
<path fill-rule="evenodd" clip-rule="evenodd" d="M16.0835 27.75C16.0835 27.3128 16.4379 26.9584 16.8752 26.9584H31.1252C31.5624 26.9584 31.9168 27.3128 31.9168 27.75C31.9168 28.1873 31.5624 28.5417 31.1252 28.5417H16.8752C16.4379 28.5417 16.0835 28.1873 16.0835 27.75Z" fill="#A7A7A7"/>
</g>
<defs>
<filter id="filter0_ddd_3846_35074" x="0" y="0" width="48" height="49" filterUnits="userSpaceOnUse" color-interpolation-filters="sRGB">
<feFlood flood-opacity="0" result="BackgroundImageFix"/>
<feColorMatrix in="SourceAlpha" type="matrix" values="0 0 0 0 0 0 0 0 0 0 0 0 0 0 0 0 0 0 127 0" result="hardAlpha"/>
<feOffset dy="1"/>
<feGaussianBlur stdDeviation="2.5"/>
<feColorMatrix type="matrix" values="0 0 0 0 0.748125 0 0 0 0 0.767812 0 0 0 0 0.7875 0 0 0 0.24 0"/>
<feBlend mode="normal" in2="BackgroundImageFix" result="effect1_dropShadow_3846_35074"/>
<feColorMatrix in="SourceAlpha" type="matrix" values="0 0 0 0 0 0 0 0 0 0 0 0 0 0 0 0 0 0 127 0" result="hardAlpha"/>
<feOffset dy="3"/>
<feGaussianBlur stdDeviation="2"/>
<feColorMatrix type="matrix" values="0 0 0 0 0.748125 0 0 0 0 0.767812 0 0 0 0 0.7875 0 0 0 0.18 0"/>
<feBlend mode="normal" in2="effect1_dropShadow_3846_35074" result="effect2_dropShadow_3846_35074"/>
<feColorMatrix in="SourceAlpha" type="matrix" values="0 0 0 0 0 0 0 0 0 0 0 0 0 0 0 0 0 0 127 0" result="hardAlpha"/>
<feOffset dy="2"/>
<feGaussianBlur stdDeviation="2"/>
<feColorMatrix type="matrix" values="0 0 0 0 0.748125 0 0 0 0 0.767812 0 0 0 0 0.7875 0 0 0 0.2 0"/>
<feBlend mode="normal" in2="effect2_dropShadow_3846_35074" result="effect3_dropShadow_3846_35074"/>
<feBlend mode="normal" in="SourceGraphic" in2="effect3_dropShadow_3846_35074" result="shape"/>
</filter>
</defs>
</svg>
