<svg width="48" height="49" viewBox="0 0 48 49" fill="none" xmlns="http://www.w3.org/2000/svg">
<g filter="url(#filter0_ddd_3846_35080)">
<circle cx="24" cy="23" r="19" fill="url(#paint0_linear_3846_35080)"/>
<path fill-rule="evenodd" clip-rule="evenodd" d="M17.5227 15.875C17.165 15.875 16.875 16.165 16.875 16.5227V21.7045C16.875 22.0623 17.165 22.3523 17.5227 22.3523H22.7045C23.0623 22.3523 23.3523 22.0623 23.3523 21.7045V16.5227C23.3523 16.165 23.0623 15.875 22.7045 15.875H17.5227ZM18.1705 21.0568V17.1705H22.0568V21.0568H18.1705ZM25.2955 15.875C24.9377 15.875 24.6477 16.165 24.6477 16.5227V21.7045C24.6477 22.0623 24.9377 22.3523 25.2955 22.3523H30.4773C30.835 22.3523 31.125 22.0623 31.125 21.7045V16.5227C31.125 16.165 30.835 15.875 30.4773 15.875H25.2955ZM25.9432 21.0568V17.1705H29.8295V21.0568H25.9432ZM16.875 24.2955C16.875 23.9377 17.165 23.6477 17.5227 23.6477H22.7045C23.0623 23.6477 23.3523 23.9377 23.3523 24.2955V29.4773C23.3523 29.835 23.0623 30.125 22.7045 30.125H17.5227C17.165 30.125 16.875 29.835 16.875 29.4773V24.2955ZM18.1705 24.9432V28.8295H22.0568V24.9432H18.1705ZM25.2955 23.6477C24.9377 23.6477 24.6477 23.9377 24.6477 24.2955V29.4773C24.6477 29.835 24.9377 30.125 25.2955 30.125H30.4773C30.835 30.125 31.125 29.835 31.125 29.4773V24.2955C31.125 23.9377 30.835 23.6477 30.4773 23.6477H25.2955ZM25.9432 28.8295V24.9432H29.8295V28.8295H25.9432Z" fill="white"/>
</g>
<defs>
<filter id="filter0_ddd_3846_35080" x="0" y="0" width="48" height="49" filterUnits="userSpaceOnUse" color-interpolation-filters="sRGB">
<feFlood flood-opacity="0" result="BackgroundImageFix"/>
<feColorMatrix in="SourceAlpha" type="matrix" values="0 0 0 0 0 0 0 0 0 0 0 0 0 0 0 0 0 0 127 0" result="hardAlpha"/>
<feOffset dy="1"/>
<feGaussianBlur stdDeviation="2.5"/>
<feColorMatrix type="matrix" values="0 0 0 0 0.748125 0 0 0 0 0.767812 0 0 0 0 0.7875 0 0 0 0.24 0"/>
<feBlend mode="normal" in2="BackgroundImageFix" result="effect1_dropShadow_3846_35080"/>
<feColorMatrix in="SourceAlpha" type="matrix" values="0 0 0 0 0 0 0 0 0 0 0 0 0 0 0 0 0 0 127 0" result="hardAlpha"/>
<feOffset dy="3"/>
<feGaussianBlur stdDeviation="2"/>
<feColorMatrix type="matrix" values="0 0 0 0 0.748125 0 0 0 0 0.767812 0 0 0 0 0.7875 0 0 0 0.18 0"/>
<feBlend mode="normal" in2="effect1_dropShadow_3846_35080" result="effect2_dropShadow_3846_35080"/>
<feColorMatrix in="SourceAlpha" type="matrix" values="0 0 0 0 0 0 0 0 0 0 0 0 0 0 0 0 0 0 127 0" result="hardAlpha"/>
<feOffset dy="2"/>
<feGaussianBlur stdDeviation="2"/>
<feColorMatrix type="matrix" values="0 0 0 0 0.748125 0 0 0 0 0.767812 0 0 0 0 0.7875 0 0 0 0.2 0"/>
<feBlend mode="normal" in2="effect2_dropShadow_3846_35080" result="effect3_dropShadow_3846_35080"/>
<feBlend mode="normal" in="SourceGraphic" in2="effect3_dropShadow_3846_35080" result="shape"/>
</filter>
<linearGradient id="paint0_linear_3846_35080" x1="23.3156" y1="-66.6563" x2="-123.548" y2="49.8217" gradientUnits="userSpaceOnUse">
<stop stop-color="#F83600"/>
<stop offset="1" stop-color="#F9D423"/>
</linearGradient>
</defs>
</svg>
