<svg width="48" height="49" viewBox="0 0 48 49" fill="none" xmlns="http://www.w3.org/2000/svg">
<g filter="url(#filter0_ddd_3897_34536)">
<circle cx="24" cy="23" r="19" fill="url(#paint0_linear_3897_34536)"/>
<path fill-rule="evenodd" clip-rule="evenodd" d="M16.0833 23C16.0833 22.5628 16.4377 22.2084 16.8749 22.2084H31.1249C31.5621 22.2084 31.9166 22.5628 31.9166 23C31.9166 23.4373 31.5621 23.7917 31.1249 23.7917H16.8749C16.4377 23.7917 16.0833 23.4373 16.0833 23Z" fill="white"/>
<path fill-rule="evenodd" clip-rule="evenodd" d="M16.0833 18.25C16.0833 17.8128 16.4377 17.4584 16.8749 17.4584H31.1249C31.5621 17.4584 31.9166 17.8128 31.9166 18.25C31.9166 18.6873 31.5621 19.0417 31.1249 19.0417H16.8749C16.4377 19.0417 16.0833 18.6873 16.0833 18.25Z" fill="white"/>
<path fill-rule="evenodd" clip-rule="evenodd" d="M16.0833 27.75C16.0833 27.3128 16.4377 26.9584 16.8749 26.9584H31.1249C31.5621 26.9584 31.9166 27.3128 31.9166 27.75C31.9166 28.1873 31.5621 28.5417 31.1249 28.5417H16.8749C16.4377 28.5417 16.0833 28.1873 16.0833 27.75Z" fill="white"/>
</g>
<defs>
<filter id="filter0_ddd_3897_34536" x="0" y="0" width="48" height="49" filterUnits="userSpaceOnUse" color-interpolation-filters="sRGB">
<feFlood flood-opacity="0" result="BackgroundImageFix"/>
<feColorMatrix in="SourceAlpha" type="matrix" values="0 0 0 0 0 0 0 0 0 0 0 0 0 0 0 0 0 0 127 0" result="hardAlpha"/>
<feOffset dy="1"/>
<feGaussianBlur stdDeviation="2.5"/>
<feColorMatrix type="matrix" values="0 0 0 0 0.748125 0 0 0 0 0.767812 0 0 0 0 0.7875 0 0 0 0.24 0"/>
<feBlend mode="normal" in2="BackgroundImageFix" result="effect1_dropShadow_3897_34536"/>
<feColorMatrix in="SourceAlpha" type="matrix" values="0 0 0 0 0 0 0 0 0 0 0 0 0 0 0 0 0 0 127 0" result="hardAlpha"/>
<feOffset dy="3"/>
<feGaussianBlur stdDeviation="2"/>
<feColorMatrix type="matrix" values="0 0 0 0 0.748125 0 0 0 0 0.767812 0 0 0 0 0.7875 0 0 0 0.18 0"/>
<feBlend mode="normal" in2="effect1_dropShadow_3897_34536" result="effect2_dropShadow_3897_34536"/>
<feColorMatrix in="SourceAlpha" type="matrix" values="0 0 0 0 0 0 0 0 0 0 0 0 0 0 0 0 0 0 127 0" result="hardAlpha"/>
<feOffset dy="2"/>
<feGaussianBlur stdDeviation="2"/>
<feColorMatrix type="matrix" values="0 0 0 0 0.748125 0 0 0 0 0.767812 0 0 0 0 0.7875 0 0 0 0.2 0"/>
<feBlend mode="normal" in2="effect2_dropShadow_3897_34536" result="effect3_dropShadow_3897_34536"/>
<feBlend mode="normal" in="SourceGraphic" in2="effect3_dropShadow_3897_34536" result="shape"/>
</filter>
<linearGradient id="paint0_linear_3897_34536" x1="23.3156" y1="-66.6563" x2="-123.548" y2="49.8217" gradientUnits="userSpaceOnUse">
<stop stop-color="#F83600"/>
<stop offset="1" stop-color="#F9D423"/>
</linearGradient>
</defs>
</svg>
