<svg width="42" height="43" viewBox="0 0 42 43" fill="none" xmlns="http://www.w3.org/2000/svg">
<g filter="url(#filter0_ddd_8999_38402)">
<rect x="5" y="4" width="32" height="32" rx="16" fill="white"/>
<path fill-rule="evenodd" clip-rule="evenodd" d="M20.333 14.6667C17.7557 14.6667 15.6663 16.756 15.6663 19.3333C15.6663 21.9107 17.7557 24 20.333 24C22.9103 24 24.9997 21.9107 24.9997 19.3333C24.9997 16.756 22.9103 14.6667 20.333 14.6667ZM14.333 19.3333C14.333 16.0196 17.0193 13.3333 20.333 13.3333C23.6467 13.3333 26.333 16.0196 26.333 19.3333C26.333 22.647 23.6467 25.3333 20.333 25.3333C17.0193 25.3333 14.333 22.647 14.333 19.3333Z" fill="#A7A7A7"/>
<path fill-rule="evenodd" clip-rule="evenodd" d="M23.6289 22.6286C23.8892 22.3682 24.3113 22.3682 24.5717 22.6286L27.4717 25.5286C27.732 25.7889 27.732 26.211 27.4717 26.4714C27.2113 26.7317 26.7892 26.7317 26.5289 26.4714L23.6289 23.5714C23.3685 23.311 23.3685 22.8889 23.6289 22.6286Z" fill="#A7A7A7"/>
</g>
<defs>
<filter id="filter0_ddd_8999_38402" x="0" y="0" width="42" height="43" filterUnits="userSpaceOnUse" color-interpolation-filters="sRGB">
<feFlood flood-opacity="0" result="BackgroundImageFix"/>
<feColorMatrix in="SourceAlpha" type="matrix" values="0 0 0 0 0 0 0 0 0 0 0 0 0 0 0 0 0 0 127 0" result="hardAlpha"/>
<feOffset dy="1"/>
<feGaussianBlur stdDeviation="2.5"/>
<feColorMatrix type="matrix" values="0 0 0 0 0.748125 0 0 0 0 0.767812 0 0 0 0 0.7875 0 0 0 0.24 0"/>
<feBlend mode="normal" in2="BackgroundImageFix" result="effect1_dropShadow_8999_38402"/>
<feColorMatrix in="SourceAlpha" type="matrix" values="0 0 0 0 0 0 0 0 0 0 0 0 0 0 0 0 0 0 127 0" result="hardAlpha"/>
<feOffset dy="3"/>
<feGaussianBlur stdDeviation="2"/>
<feColorMatrix type="matrix" values="0 0 0 0 0.748125 0 0 0 0 0.767812 0 0 0 0 0.7875 0 0 0 0.18 0"/>
<feBlend mode="normal" in2="effect1_dropShadow_8999_38402" result="effect2_dropShadow_8999_38402"/>
<feColorMatrix in="SourceAlpha" type="matrix" values="0 0 0 0 0 0 0 0 0 0 0 0 0 0 0 0 0 0 127 0" result="hardAlpha"/>
<feOffset dy="2"/>
<feGaussianBlur stdDeviation="2"/>
<feColorMatrix type="matrix" values="0 0 0 0 0.748125 0 0 0 0 0.767812 0 0 0 0 0.7875 0 0 0 0.2 0"/>
<feBlend mode="normal" in2="effect2_dropShadow_8999_38402" result="effect3_dropShadow_8999_38402"/>
<feBlend mode="normal" in="SourceGraphic" in2="effect3_dropShadow_8999_38402" result="shape"/>
</filter>
</defs>
</svg>
